<?xml version="1.0" encoding="utf-8"?>
<!-- Generator: Adobe Illustrator 24.0.1, SVG Export Plug-In . SVG Version: 6.00 Build 0)  -->
<svg version="1.1" id="Layer_1" xmlns="http://www.w3.org/2000/svg" xmlns:xlink="http://www.w3.org/1999/xlink" x="0px" y="0px"
	 viewBox="0 0 1440 2560" style="enable-background:new 0 0 1440 2560;" xml:space="preserve">
<style type="text/css">
	.st0{display:none;}
	.st1{display:inline;}
	.st2{display:inline;enable-background:new    ;}
	.st3{fill:#060743;}
	.st4{font-family:'ArialMT';}
	.st5{font-size:54.9125px;}
	.st6{fill:#FFFFFF;}
	.st7{font-size:65.9418px;}
	.st8{fill:#ADADAD;}
	.st9{font-family:'CenturyGothic';}
	.st10{font-size:60px;}
	.st11{fill:#051F68;}
	.st12{font-size:60.0532px;}
	.st13{fill:#EBEBEB;}
	.st14{font-size:35.7374px;}
	.st15{font-size:54.1081px;}
	.st16{enable-background:new    ;}
	.st17{fill:#18247C;}
	.st18{font-size:42px;}
	.st19{font-size:50.6162px;}
	.st20{display:inline;fill:#555555;}
	.st21{fill:#D2204A;}
	.st22{font-family:'Porter-BoldDEMO';}
	.st23{fill:#555555;}
	.st24{font-size:55px;}
	.st25{fill:none;}
	.st26{font-size:68.1061px;}
</style>
<g id="_x3C_Background_x3E__xA0_0_xA0_Image_1_" class="st0">
	
		<image style="display:inline;overflow:visible;enable-background:new    ;" width="1440" height="2560" id="_x3C_Background_x3E__xA0_0_xA0_Image" xlink:href="646D93BC.jpeg" >
	</image>
</g>
<g id="Image_xA0_9_1_" class="st0">
	<g id="Image_xA0_5_1_">
		<g id="Layer_3_xA0_Image_1_" class="st1">
			
				<image style="overflow:visible;enable-background:new    ;" width="1379" height="1050" id="Layer_3_xA0_Image" xlink:href="646D93B8.png"  transform="matrix(1 0 0 1 61 1510)">
			</image>
		</g>
		<g id="Layer_4_xA0_Image_1_" class="st1">
			
				<image style="overflow:visible;enable-background:new    ;" width="1440" height="1057" id="Layer_4_xA0_Image" xlink:href="646D93B9.png" >
			</image>
		</g>
	</g>
	<g id="Image_xA0_7_xA0_Image_1_">
		
			<image style="display:inline;overflow:visible;enable-background:new    ;" width="1040" height="239" id="Image_xA0_7_xA0_Image" xlink:href="646D93C8.png"  transform="matrix(1 0 0 1 236 1094)">
		</image>
	</g>
	<g id="Logo_BK_copy_xA0_Image_1_">
		
			<image style="display:inline;overflow:visible;enable-background:new    ;" width="1040" height="239" id="Logo_BK_copy_xA0_Image" xlink:href="646D93C9.png"  transform="matrix(1 0 0 1 234 1093)">
		</image>
	</g>
</g>
<g id="Login_Screen_1_" class="st0">
	<g id="Image_xA0_11_xA0_Image_1_">
		
			<image style="display:inline;overflow:visible;enable-background:new    ;" width="1440" height="2560" id="Image_xA0_11_xA0_Image" xlink:href="646D93C4.png" >
		</image>
	</g>
	<g id="Image_xA0_12_xA0_Image_1_">
		
			<image style="display:inline;overflow:visible;enable-background:new    ;" width="1440" height="2560" id="Image_xA0_12_xA0_Image" xlink:href="646D93C4.png" >
		</image>
	</g>
	<g id="Image_xA0_13_xA0_Image_1_">
		
			<image style="display:inline;overflow:visible;enable-background:new    ;" width="1440" height="2560" id="Image_xA0_13_xA0_Image" xlink:href="646D93CC.png" >
		</image>
	</g>
	<g id="Layer_24_xA0_Image_1_" class="st1">
		
			<image style="overflow:visible;enable-background:new    ;" width="1440" height="2560" id="Layer_24_xA0_Image" xlink:href="646D93CC.png" >
		</image>
	</g>
	<g id="Image_xA0_15_xA0_Image_1_">
		
			<image style="display:inline;overflow:visible;enable-background:new    ;" width="1440" height="2560" id="Image_xA0_15_xA0_Image" xlink:href="83D65A91.png" >
		</image>
	</g>
	<g id="Image_xA0_16_xA0_Image_1_">
		
			<image style="display:inline;overflow:visible;enable-background:new    ;" width="1440" height="2190" id="Image_xA0_16_xA0_Image" xlink:href="83D65A92.png"  transform="matrix(1 0 0 1 0 370)">
		</image>
	</g>
	<g id="Image_xA0_17_xA0_Image_1_">
		
			<image style="display:inline;overflow:visible;enable-background:new    ;" width="1440" height="1555" id="Image_xA0_17_xA0_Image" xlink:href="83D65A90.png" >
		</image>
	</g>
	<g id="Rectangle_4_2_" class="st2">
		<g>
			<defs>
				<rect id="SVGID_1_" x="-20" y="1210" width="1522" height="1383"/>
			</defs>
			<clipPath id="SVGID_2_">
				<use xlink:href="#SVGID_1_"  style="overflow:visible;"/>
			</clipPath>
			
				<image style="overflow:visible;clip-path:url(#SVGID_2_);enable-background:new    ;" width="1440" height="2560" id="Rectangle_4_xA0_Image" xlink:href="83D65A89.png" >
			</image>
		</g>
	</g>
	<g id="Rectangle_3_xA0_Image_1_" class="st1">
		
			<image style="overflow:visible;enable-background:new    ;" width="1440" height="1489" id="Rectangle_3_xA0_Image" xlink:href="83D65A8B.png" >
		</image>
	</g>
	<g id="Layer_23_xA0_Image_1_" class="st1">
		
			<image style="overflow:visible;enable-background:new    ;" width="1440" height="253" id="Layer_23_xA0_Image" xlink:href="83D65A95.png"  transform="matrix(1 0 0 1 0 1248)">
		</image>
	</g>
	<g id="Logo_WH_copy_xA0_Image_1_" class="st1">
		
			<image style="overflow:visible;enable-background:new    ;" width="1037" height="239" id="Logo_WH_copy_xA0_Image" xlink:href="83D65A9F.png"  transform="matrix(1 0 0 1 274 424)">
		</image>
	</g>
	<g id="Your_Event_Source_xA0_Image_1_" class="st1">
		
			<image style="overflow:visible;enable-background:new    ;" width="672" height="55" id="Your_Event_Source_xA0_Image" xlink:href="83D65A9C.png"  transform="matrix(1 0 0 1 385 688)">
		</image>
	</g>
	<g id="_x3F_Don_x2019_t_have_an_account_1_" class="st1">
		<text transform="matrix(0.9947 0 0 1 1067.6211 2374.1699)" class="st3 st4 st5">?</text>
	</g>
	<g id="Rounded_Rectangle_4_2_" class="st2">
		<g>
			<defs>
				<path id="SVGID_3_" d="M1226.9,1706H286.1c-26,0-47.1,21.1-47.1,47.1v81.7c0,26,21.1,47.1,47.1,47.1h940.8
					c26,0,47.1-21.1,47.1-47.1v-81.7C1274,1727.1,1252.9,1706,1226.9,1706z"/>
			</defs>
			<clipPath id="SVGID_4_">
				<use xlink:href="#SVGID_3_"  style="overflow:visible;"/>
			</clipPath>
			
				<image style="overflow:visible;clip-path:url(#SVGID_4_);enable-background:new    ;" width="1440" height="2560" id="Rounded_Rectangle_4_xA0_Image" xlink:href="83D65A9B.png" >
			</image>
		</g>
	</g>
	<g id="Sign_in_with_my_account" class="st1">
		<text transform="matrix(0.9964 0 0 1 454.998 1815.5879)" class="st6 st4 st7">Sign in with my account</text>
	</g>
	<g id="Layer_5_copy_xA0_Image_1_" class="st1">
		
			<image style="overflow:visible;enable-background:new    ;" width="111" height="85" id="Layer_5_copy_xA0_Image" xlink:href="83D65A9E.png"  transform="matrix(1 0 0 1 300 1749)">
		</image>
	</g>
	<g id="Layer_19_xA0_Image_1_" class="st1">
		
			<image style="overflow:visible;enable-background:new    ;" width="724" height="260" id="Layer_19_xA0_Image" xlink:href="83D65ABC.png"  transform="matrix(1 0 0 1 382 1972)">
		</image>
	</g>
</g>
<g id="Image_xA0_41_1_" class="st0">
	<g id="Layer_25_xA0_Image_1_" class="st1">
		
			<image style="overflow:visible;enable-background:new    ;" width="1440" height="2560" id="Layer_25_xA0_Image" xlink:href="83D65AB2.png" >
		</image>
	</g>
	<g id="Your_Event_Source_copy_xA0_Image_1_" class="st1">
		
			<image style="overflow:visible;enable-background:new    ;" width="672" height="55" id="Your_Event_Source_copy_xA0_Image" xlink:href="83D65A80.png"  transform="matrix(1 0 0 1 385 688)">
		</image>
	</g>
	<g id="Logo_WH_copy_2_xA0_Image_1_" class="st1">
		
			<image style="overflow:visible;enable-background:new    ;" width="1037" height="239" id="Logo_WH_copy_2_xA0_Image" xlink:href="83D65A81.png"  transform="matrix(1 0 0 1 274 424)">
		</image>
	</g>
	<g id="Rectangle_5" class="st1">
		<g>
			<rect x="168" y="2050" class="st8" width="1135" height="5"/>
		</g>
	</g>
	<g id="Rectangle_5_copy" class="st1">
		<g>
			<rect x="168" y="1800" class="st8" width="1135" height="5"/>
		</g>
	</g>
	<g id="Layer_26_xA0_Image_1_" class="st1">
		
			<image style="overflow:visible;enable-background:new    ;" width="72" height="83" id="Layer_26_xA0_Image" xlink:href="83D65A82.png"  transform="matrix(1 0 0 1 246 1684)">
		</image>
	</g>
	<g id="Layer_27_xA0_Image_1_" class="st1">
		
			<image style="overflow:visible;enable-background:new    ;" width="79" height="90" id="Layer_27_xA0_Image" xlink:href="83D65A83.png"  transform="matrix(1 0 0 1 241 1935)">
		</image>
	</g>
	<g id="Username" class="st1">
		<text transform="matrix(1 0 0 1 392.665 1756.1631)" class="st8 st9 st10">Username</text>
	</g>
	<g id="Password_1_" class="st1">
		<text transform="matrix(1 0 0 1 393.2119 2001.1631)" class="st8 st9 st10">Password</text>
	</g>
	<g id="SIGN_IN" class="st1">
		<text transform="matrix(1 0 0 1 630.7416 2230.5625)" class="st6 st9 st10">SIGN IN</text>
	</g>
	<g id="_x3F_Don_x2019_t_have_an_account" class="st1">
		<text transform="matrix(0.9947 0 0 1 1067.6211 2374.1699)" class="st3 st4 st5">?</text>
	</g>
</g>
<g id="Image_xA0_66_1_" class="st0">
	<g id="Layer_25_copy_xA0_Image_1_" class="st1">
		
			<image style="overflow:visible;enable-background:new    ;" width="1440" height="2560" id="Layer_25_copy_xA0_Image" xlink:href="83D65AB6.png" >
		</image>
	</g>
	<g id="Rectangle_6" class="st1">
		<g>
			<rect y="2369" class="st6" width="1440" height="191"/>
		</g>
	</g>
	<g id="Layer_28_xA0_Image_1_" class="st1">
		
			<image style="overflow:visible;enable-background:new    ;" width="79" height="131" id="Layer_28_xA0_Image" xlink:href="83D65A85.png"  transform="matrix(1 0 0 1 529 2401)">
		</image>
	</g>
	<g id="Go_back" class="st1">
		<text transform="matrix(0.9936 0 0 1 664.998 2486.585)" class="st11 st9 st12">Go back</text>
	</g>
	<g id="Buttons_copy_1_" class="st1">
		<g id="Image_xA0_48" class="st0">
			<g class="st1">
				<path class="st13" d="M1037.5,2102H750.2c-14.3,0-25.8,11.6-25.8,25.8v249.4c0,14.3,11.5,25.8,25.8,25.8h287.3
					c14.3,0,25.8-11.6,25.8-25.8v-249.4C1063.3,2113.6,1051.8,2102,1037.5,2102z"/>
			</g>
		</g>
		<g id="Image_xA0_49" class="st0">
			<g class="st1">
				<path class="st13" d="M684.8,2102H397.5c-14.3,0-25.8,11.6-25.8,25.8v249.4c0,14.3,11.5,25.8,25.8,25.8h287.3
					c14.3,0,25.8-11.6,25.8-25.8v-249.4C710.6,2113.6,699.1,2102,684.8,2102z"/>
			</g>
		</g>
		<g id="Image_xA0_50" class="st0">
			<g class="st1">
				<path class="st13" d="M1390.2,2102h-287.3c-14.3,0-25.8,11.6-25.8,25.8v249.4c0,14.3,11.6,25.8,25.8,25.8h287.3
					c14.3,0,25.8-11.6,25.8-25.8v-249.4C1416,2113.6,1404.4,2102,1390.2,2102z"/>
			</g>
		</g>
		<g id="Image_xA0_51" class="st0">
			<g class="st1">
				<path class="st13" d="M332.1,2102H44.8c-14.3,0-25.8,11.6-25.8,25.8v249.4c0,14.3,11.6,25.8,25.8,25.8h287.3
					c14.3,0,25.8-11.6,25.8-25.8v-249.4C357.9,2113.6,346.4,2102,332.1,2102z"/>
			</g>
		</g>
		<g id="Company_xA0_Image_3_">
			
				<image style="overflow:visible;enable-background:new    ;" width="191" height="219" id="Company_xA0_Image_2_" xlink:href="83D65A98.png"  transform="matrix(1 0 0 1 140 700)">
			</image>
		</g>
		<g id="Speaker_xA0_Image_3_">
			
				<image style="overflow:visible;enable-background:new    ;" width="218" height="219" id="Speaker_xA0_Image_2_" xlink:href="83D65AEB.png"  transform="matrix(1 0 0 1 130 1070)">
			</image>
		</g>
		<g id="Individual_xA0_Image_3_">
			
				<image style="overflow:visible;enable-background:new    ;" width="313" height="220" id="Individual_xA0_Image_2_" xlink:href="83D65AE9.png"  transform="matrix(1 0 0 1 79 1459)">
			</image>
		</g>
		<g id="Sponsor_xA0_Image_3_">
			
				<image style="overflow:visible;enable-background:new    ;" width="218" height="218" id="Sponsor_xA0_Image_2_" xlink:href="83D65AE8.png"  transform="matrix(1 0 0 1 129 1838)">
			</image>
		</g>
		<g id="COMPANY">
			<text transform="matrix(1.0008 0 0 1 141.6636 969)" class="st6 st9 st14">COMPANY</text>
		</g>
		<g id="PROVIDER_1_">
			<text transform="matrix(1.0008 0 0 1 143.9346 1339)" class="st6 st9 st14">PROVIDER</text>
		</g>
		<g id="INDIVIDUAL">
			<text transform="matrix(1.0008 0 0 1 137.1196 1729)" class="st6 st9 st14">INDIVIDUAL</text>
		</g>
		<g id="SPONSOR">
			<text transform="matrix(1.0008 0 0 1 155.7192 2108)" class="st6 st9 st14">SPONSOR</text>
		</g>
		<g id="I_am_a_company_looking_to_set_up_events_for_employees_1_">
			<text transform="matrix(0.9986 0 0 1 494 805.4785)" class="st6 st9 st15">I am a company looking to</text>
			<text transform="matrix(0.9986 0 0 1 494 870.4082)" class="st6 st9 st15">set up events for employees</text>
		</g>
		<g id="I_am_a_speaker_or_service_provider_looking_to_get_out_in_my_com_1_">
			<text transform="matrix(0.9986 0 0 1 493.999 1165.4785)" class="st6 st9 st15">I am a speaker or service</text>
			<text transform="matrix(0.9986 0 0 1 493.999 1230.4082)" class="st6 st9 st15">provider looking to get out</text>
			<text transform="matrix(0.9986 0 0 1 493.999 1295.3389)" class="st6 st9 st15">in my community</text>
		</g>
		<g id="I_am_an_individual_or_group_member_looking_to_set_up_an_event_1_">
			<text transform="matrix(0.9986 0 0 1 494 1555.4785)" class="st6 st9 st15">I am an individual or group</text>
			<text transform="matrix(0.9986 0 0 1 494 1620.4082)" class="st6 st9 st15">member looking to set up</text>
			<text transform="matrix(0.9986 0 0 1 494 1685.3389)" class="st6 st9 st15">an event</text>
		</g>
		<g id="I_am_a_sponsor_who_wants_to_support_my_community_1_">
			<text transform="matrix(0.9986 0 0 1 494 1945.4785)" class="st6 st9 st15">I am a sponsor who wants to</text>
			<text transform="matrix(0.9986 0 0 1 494 2010.4082)" class="st6 st9 st15">support my community</text>
		</g>
	</g>
	<g id="Logo_WH_copy_3_xA0_Image_1_" class="st1">
		
			<image style="overflow:visible;enable-background:new    ;" width="912" height="210" id="Logo_WH_copy_3_xA0_Image" xlink:href="83D65AE5.png"  transform="matrix(1 0 0 1 309 214)">
		</image>
	</g>
</g>
<g id="Image_xA0_97_1_" class="st0">
	<g id="Layer_29_xA0_Image_1_" class="st1">
		
			<image style="overflow:visible;enable-background:new    ;" width="1440" height="2560" id="Layer_29_xA0_Image" xlink:href="83D65AEF.png" >
		</image>
	</g>
	<g id="Bottom_1_" class="st1">
		<g id="Rectangle_6_copy_2_" class="st16">
			<g>
				<defs>
					<rect id="SVGID_5_" x="-24" y="2429" width="1551" height="209"/>
				</defs>
				<clipPath id="SVGID_6_">
					<use xlink:href="#SVGID_5_"  style="overflow:visible;"/>
				</clipPath>
				
					<image style="overflow:visible;clip-path:url(#SVGID_6_);enable-background:new    ;" width="1440" height="2560" id="Rectangle_6_copy_xA0_Image" xlink:href="83D65AED.png" >
				</image>
			</g>
		</g>
		<g id="Social_copy_xA0_Image_1_">
			
				<image style="overflow:visible;enable-background:new    ;" width="553" height="51" id="Social_copy_xA0_Image" xlink:href="83D65AF6.png"  transform="matrix(1 0 0 1 458 2469)">
			</image>
		</g>
	</g>
	<g id="Body_1_" class="st1">
		<g id="Notification_1_">
			<g id="Rectangle_7_2_" class="st16">
				<g>
					<defs>
						<rect id="SVGID_7_" x="70" y="524" width="1295" height="242"/>
					</defs>
					<clipPath id="SVGID_8_">
						<use xlink:href="#SVGID_7_"  style="overflow:visible;"/>
					</clipPath>
					
						<image style="overflow:visible;clip-path:url(#SVGID_8_);enable-background:new    ;" width="1440" height="2560" id="Rectangle_7_xA0_Image_1_" xlink:href="83D65AF5.png" >
					</image>
				</g>
			</g>
			<g id="Rectangle_8_2_" class="st16">
				<g>
					<defs>
						<rect id="SVGID_9_" x="70" y="525" width="1295" height="95"/>
					</defs>
					<clipPath id="SVGID_10_">
						<use xlink:href="#SVGID_9_"  style="overflow:visible;"/>
					</clipPath>
					
						<image style="overflow:visible;clip-path:url(#SVGID_10_);enable-background:new    ;" width="1440" height="2560" id="Rectangle_8_xA0_Image_1_" xlink:href="83D65AF7.png" >
					</image>
				</g>
			</g>
			<g id="You_have_a_new_sponsorship_proposal_1_">
				<text id="You_have_a_new_sponsorship_proposal" transform="matrix(1 0 0 1 379.6772 704.355)" class="st17 st9 st18">You have a new sponsorship proposal</text>
			</g>
			<g id="Notifications">
				<text transform="matrix(1.0074 0 0 1 216 590.4785)" class="st17 st9 st19">Notifcations</text>
			</g>
			<g id="Layer_31_xA0_Image_1_">
				
					<image style="overflow:visible;enable-background:new    ;" width="78" height="69" id="Layer_31_xA0_Image" xlink:href="83D65AFB.png"  transform="matrix(1 0 0 1 109 538)">
				</image>
			</g>
			<g id="Layer_30_xA0_Image_1_">
				
					<image style="overflow:visible;enable-background:new    ;" width="75" height="50" id="Layer_30_xA0_Image" xlink:href="83D65AFE.png"  transform="matrix(1 0 0 1 274 663)">
				</image>
			</g>
		</g>
		<g id="Current_Events_1_">
			<g id="Rectangle_7_4_" class="st16">
				<g>
					<defs>
						<rect id="SVGID_11_" x="70" y="844" width="1295" height="404"/>
					</defs>
					<clipPath id="SVGID_12_">
						<use xlink:href="#SVGID_11_"  style="overflow:visible;"/>
					</clipPath>
					
						<image style="overflow:visible;clip-path:url(#SVGID_12_);enable-background:new    ;" width="1440" height="2560" id="Rectangle_7_xA0_Image" xlink:href="83D65AD8.png" >
					</image>
				</g>
			</g>
			<g id="Rectangle_8_4_" class="st16">
				<g>
					<defs>
						<rect id="SVGID_13_" x="70" y="845" width="1295" height="95"/>
					</defs>
					<clipPath id="SVGID_14_">
						<use xlink:href="#SVGID_13_"  style="overflow:visible;"/>
					</clipPath>
					
						<image style="overflow:visible;clip-path:url(#SVGID_14_);enable-background:new    ;" width="1440" height="2560" id="Rectangle_8_xA0_Image" xlink:href="83D65AD8.png" >
					</image>
				</g>
			</g>
			<g id="Date:_12_x2F_27_x2F_2019_Event:_Stress_Management_Provider:_Olympia_Phy_1_" class="st0">
				<text transform="matrix(1 0 0 1 489.6782 1021.355)" class="st20 st9 st18">Date: 12/27/2019</text>
				<text transform="matrix(1 0 0 1 489.6782 1071.755)" class="st20 st9 st18">Event: Stress Management</text>
				<text transform="matrix(1 0 0 1 489.6782 1122.155)" class="st20 st9 st18">Provider: Olympia Physical Therapy</text>
				<text transform="matrix(1 0 0 1 489.6782 1172.5549)" class="st20 st9 st18">Sponsor: Advil</text>
			</g>
			<g id="Current_events">
				<text transform="matrix(1.0074 0 0 1 216 908.4785)" class="st17 st9 st19">Current events</text>
			</g>
			<g id="Layer_32_xA0_Image_1_">
				
					<image style="overflow:visible;enable-background:new    ;" width="76" height="76" id="Layer_32_xA0_Image" xlink:href="83D65ADC.png"  transform="matrix(1 0 0 1 108 854)">
				</image>
			</g>
			<g id="Layer_33_xA0_Image_1_">
				
					<image style="overflow:visible;enable-background:new    ;" width="298" height="185" id="Layer_33_xA0_Image" xlink:href="83D65ADD.png"  transform="matrix(1 0 0 1 136 993)">
				</image>
			</g>
		</g>
	</g>
	<g id="Top_3_" class="st1">
		<g id="Layer_25_copy_2_xA0_Image_1_">
			
				<image style="overflow:visible;enable-background:new    ;" width="1440" height="397" id="Layer_25_copy_2_xA0_Image" xlink:href="83D65AC0.png" >
			</image>
		</g>
		<g id="Layer_23_copy_xA0_Image_1_">
			
				<image style="overflow:visible;enable-background:new    ;" width="1440" height="254" id="Layer_23_copy_xA0_Image" xlink:href="83D65AC1.png"  transform="matrix(1 0 0 1 0 158)">
			</image>
		</g>
		<g id="Menu_copy_xA0_Image_1_">
			
				<image style="overflow:visible;enable-background:new    ;" width="128" height="81" id="Menu_copy_xA0_Image" xlink:href="83D65ACE.png"  transform="matrix(1 0 0 1 1130 196)">
			</image>
		</g>
		<g id="Logo_WH_copy_4_xA0_Image_1_">
			
				<image style="overflow:visible;enable-background:new    ;" width="912" height="210" id="Logo_WH_copy_4_xA0_Image" xlink:href="83D65ACF.png"  transform="matrix(1 0 0 1 84 68)">
			</image>
		</g>
	</g>
</g>
<g id="Image_xA0_153_1_" class="st0">
	<g id="Rectangle_1_xA0_Image_1_" class="st1">
		
			<image style="overflow:visible;enable-background:new    ;" width="1440" height="2560" id="Rectangle_1_xA0_Image" xlink:href="83D65AC8.png" >
		</image>
	</g>
	<g id="Footer_1_" class="st1">
		<g id="Rectangle_2_xA0_Image_1_">
			
				<image style="overflow:visible;enable-background:new    ;" width="1440" height="138" id="Rectangle_2_xA0_Image" xlink:href="83D65AC8.png"  transform="matrix(1 0 0 1 0 2422)">
			</image>
		</g>
		<g id="Social_xA0_Image_1_">
			
				<image style="overflow:visible;enable-background:new    ;" width="553" height="51" id="Social_xA0_Image" xlink:href="83D65B2C.png"  transform="matrix(1 0 0 1 458 2469)">
			</image>
		</g>
	</g>
	<g id="Buttons_1_" class="st1">
		<g id="Rounded_Rectangle_1">
			<g>
				<path class="st13" d="M1037.5,2102H750.2c-14.3,0-25.8,11.6-25.8,25.8v249.4c0,14.3,11.5,25.8,25.8,25.8h287.3
					c14.3,0,25.8-11.6,25.8-25.8v-249.4C1063.3,2113.6,1051.8,2102,1037.5,2102z"/>
			</g>
		</g>
		<g id="Rounded_Rectangle_1_copy">
			<g>
				<path class="st13" d="M684.8,2102H397.5c-14.3,0-25.8,11.6-25.8,25.8v249.4c0,14.3,11.5,25.8,25.8,25.8h287.3
					c14.3,0,25.8-11.6,25.8-25.8v-249.4C710.6,2113.6,699.1,2102,684.8,2102z"/>
			</g>
		</g>
		<g id="Rounded_Rectangle_1_copy_2">
			<g>
				<path class="st13" d="M1390.2,2102h-287.3c-14.3,0-25.8,11.6-25.8,25.8v249.4c0,14.3,11.6,25.8,25.8,25.8h287.3
					c14.3,0,25.8-11.6,25.8-25.8v-249.4C1416,2113.6,1404.4,2102,1390.2,2102z"/>
			</g>
		</g>
		<g id="Rounded_Rectangle_1_copy_3">
			<g>
				<path class="st13" d="M332.1,2102H44.8c-14.3,0-25.8,11.6-25.8,25.8v249.4c0,14.3,11.6,25.8,25.8,25.8h287.3
					c14.3,0,25.8-11.6,25.8-25.8v-249.4C357.9,2113.6,346.4,2102,332.1,2102z"/>
			</g>
		</g>
		<g id="Company_xA0_Image_1_">
			
				<image style="overflow:visible;enable-background:new    ;" width="191" height="219" id="Company_xA0_Image" xlink:href="83D65B2A.png"  transform="matrix(1 0 0 1 90 2120)">
			</image>
		</g>
		<g id="Speaker_xA0_Image_1_">
			
				<image style="overflow:visible;enable-background:new    ;" width="218" height="219" id="Speaker_xA0_Image" xlink:href="83D65B2B.png"  transform="matrix(1 0 0 1 440 2120)">
			</image>
		</g>
		<g id="Individual_xA0_Image_1_">
			
				<image style="overflow:visible;enable-background:new    ;" width="313" height="220" id="Individual_xA0_Image" xlink:href="83D65B58.png"  transform="matrix(1 0 0 1 739 2119)">
			</image>
		</g>
		<g id="Sponsor_xA0_Image_1_">
			
				<image style="overflow:visible;enable-background:new    ;" width="218" height="218" id="Sponsor_xA0_Image" xlink:href="83D65B5B.png"  transform="matrix(1 0 0 1 1139 2119)">
			</image>
		</g>
		<g id="Company_2_">
			<text transform="matrix(1.0008 0 0 1 88.8052 2389)" class="st21 st22 st14">Company</text>
		</g>
		<g id="PROVIDER">
			<text transform="matrix(1.0008 0 0 1 445.376 2389)" class="st21 st22 st14">PROVIDER</text>
		</g>
		<g id="individual">
			<text transform="matrix(1.0008 0 0 1 786.3701 2389)" class="st21 st22 st14">individual</text>
		</g>
		<g id="Sponsor_2_">
			<text transform="matrix(1.0008 0 0 1 1159.9775 2389)" class="st21 st22 st14">Sponsor</text>
		</g>
	</g>
	<g id="Login_1_">
		<g id="or_x0D_:Register_as" class="st1">
			<text transform="matrix(1 0 0 1 700.4968 1918.1826)" class="st23 st9 st24">or</text>
			<text transform="matrix(1 0 0 1 860.9468 1998.1826)" class="st23 st9 st24">:</text>
		</g>
		<g id="Email" class="st1">
			<path class="st25" d="M196.6,1012h356.1c7,0,12.6,8.2,12.6,18.4v39.2c0,10.2-5.7,18.4-12.6,18.4H196.6c-7,0-12.6-8.2-12.6-18.4
				v-39.2C184,1020.2,196.6,1012,196.6,1012z"/>
			<text transform="matrix(1 0 0 1 304.3459 1052.4796)" class="st23 st9 st24">Email</text>
		</g>
		<g id="Password" class="st1">
			<path class="st25" d="M246.6,1182h356.1c7,0,12.6,8.2,12.6,18.4v39.2c0,10.2-5.7,18.4-12.6,18.4H246.6c-7,0-12.6-8.2-12.6-18.4
				v-39.2C234,1190.2,246.6,1182,246.6,1182z"/>
			<text transform="matrix(1 0 0 1 300.2993 1222.4796)" class="st23 st9 st24">Password</text>
		</g>
		<g id="Google_1_" class="st1">
			<g id="Rounded_Rectangle_3_copy_2_2_" class="st16">
				<g>
					<defs>
						<path id="SVGID_15_" d="M1023.7,1682H424.3c-26.1,0-47.3,13.4-47.3,30v72c0,16.6,21.2,30,47.3,30h599.4
							c26.1,0,47.3-13.4,47.3-30v-72C1071,1695.4,1049.8,1682,1023.7,1682z"/>
					</defs>
					<clipPath id="SVGID_16_">
						<use xlink:href="#SVGID_15_"  style="overflow:visible;"/>
					</clipPath>
					
						<image style="overflow:visible;clip-path:url(#SVGID_16_);enable-background:new    ;" width="1440" height="2560" id="Rounded_Rectangle_3_copy_2_xA0_Image" xlink:href="83D65B2D.png" >
					</image>
				</g>
			</g>
			<g id="Layer_10_xA0_Image_1_">
				
					<image style="overflow:visible;enable-background:new    ;" width="86" height="88" id="Layer_10_xA0_Image" xlink:href="83D65B5F.png"  transform="matrix(1 0 0 1 416 1705)">
				</image>
			</g>
			<g id="Login_with_Google">
				<text transform="matrix(1 0 0 1 556.1897 1767.2246)" class="st6 st4 st24">Login with Google</text>
			</g>
		</g>
		<g id="Facebook_1_" class="st1">
			<g id="Rounded_Rectangle_3_copy_2_" class="st16">
				<g>
					<defs>
						<path id="SVGID_17_" d="M1023.7,1522H424.3c-26.1,0-47.3,13.4-47.3,30v72c0,16.6,21.2,30,47.3,30h599.4
							c26.1,0,47.3-13.4,47.3-30v-72C1071,1535.4,1049.8,1522,1023.7,1522z"/>
					</defs>
					<clipPath id="SVGID_18_">
						<use xlink:href="#SVGID_17_"  style="overflow:visible;"/>
					</clipPath>
					
						<image style="overflow:visible;clip-path:url(#SVGID_18_);enable-background:new    ;" width="1440" height="2560" id="Rounded_Rectangle_3_copy_xA0_Image" xlink:href="83D65B25.png" >
					</image>
				</g>
			</g>
			<g id="Login_with_Facebook">
				<text transform="matrix(1 0 0 1 524.0984 1603.2246)" class="st6 st4 st24">Login with Facebook</text>
			</g>
			<g id="Layer_6_xA0_Image_1_">
				
					<image style="overflow:visible;enable-background:new    ;" width="86" height="84" id="Layer_6_xA0_Image" xlink:href="83D65B5D.png"  transform="matrix(1 0 0 1 415 1545)">
				</image>
			</g>
		</g>
		<g id="login_1_" class="st1">
			<g id="Rounded_Rectangle_3_2_" class="st16">
				<g>
					<defs>
						<path id="SVGID_19_" d="M917,1332H537c-16.6,0-30,13.4-30,30v72c0,16.6,13.4,30,30,30h380c16.6,0,30-13.4,30-30v-72
							C947,1345.4,933.6,1332,917,1332z"/>
					</defs>
					<clipPath id="SVGID_20_">
						<use xlink:href="#SVGID_19_"  style="overflow:visible;"/>
					</clipPath>
					
						<image style="overflow:visible;clip-path:url(#SVGID_20_);enable-background:new    ;" width="1440" height="2560" id="Rounded_Rectangle_3_xA0_Image" xlink:href="83D65B25.png" >
					</image>
				</g>
			</g>
			<g id="Layer_5_xA0_Image_1_">
				
					<image style="overflow:visible;enable-background:new    ;" width="111" height="85" id="Layer_5_xA0_Image" xlink:href="83D65B78.png"  transform="matrix(1 0 0 1 548 1359)">
				</image>
			</g>
			<g id="Login_2_">
				<text transform="matrix(1.009 0 0 1 710.3877 1425.5215)" class="st17 st4 st26">Login</text>
			</g>
		</g>
	</g>
	<g id="Banner_1_" class="st1">
		<g id="Image_xA0_141_xA0_Image_1_" class="st0">
			
				<image style="display:inline;overflow:visible;enable-background:new    ;" width="1440" height="381" id="Image_xA0_141_xA0_Image" xlink:href="83D65B06.png"  transform="matrix(1 0 0 1 0 509)">
			</image>
		</g>
		<g id="Layer_7_xA0_Image_1_">
			
				<image style="overflow:visible;enable-background:new    ;" width="1440" height="758" id="Layer_7_xA0_Image" xlink:href="83D65B74.png"  transform="matrix(1 0 0 1 0 349)">
			</image>
		</g>
	</g>
	<g id="Top_2_" class="st1">
		<g id="Logo_WH_xA0_Image_1_">
			
				<image style="overflow:visible;enable-background:new    ;" width="730" height="168" id="Logo_WH_xA0_Image" xlink:href="83D65B75.png"  transform="matrix(1 0 0 1 367 40)">
			</image>
		</g>
		<g id="Image_xA0_149_xA0_Image_1_" class="st0">
			
				<image style="display:inline;overflow:visible;enable-background:new    ;" width="882" height="206" id="Image_xA0_149_xA0_Image" xlink:href="83D65B76.png"  transform="matrix(1 0 0 1 317 33)">
			</image>
		</g>
		<g id="Image_xA0_150_xA0_Image_1_" class="st0">
			
				<image style="display:inline;overflow:visible;enable-background:new    ;" width="1040" height="239" id="Image_xA0_150_xA0_Image" xlink:href="83D65B77.png"  transform="matrix(1 0 0 1 241 21)">
			</image>
		</g>
		<g id="Menu_xA0_Image_1_">
			
				<image style="overflow:visible;enable-background:new    ;" width="128" height="81" id="Menu_xA0_Image" xlink:href="83D65B08.png"  transform="matrix(1 0 0 1 1184 155)">
			</image>
		</g>
	</g>
</g>
<g id="Layer_2_xA0_Image_1_">
	
		<image style="overflow:visible;enable-background:new    ;" width="1440" height="2560" id="Layer_2_xA0_Image" xlink:href="83D65B02.png" >
	</image>
</g>
</svg>
